<?xml version="1.0" standalone="no"?>
<!DOCTYPE svg PUBLIC "-//W3C//DTD SVG 20010904//EN">
<svg version="1.0" xmlns="http://www.w3.org/2000/svg"
     width="210.000000pt" height="240.000000pt" viewBox="0 0 210.000000 240.000000"
     preserveAspectRatio="xMidYMid meet">

    <g transform="translate(0.000000,240.000000) scale(0.100000,-0.100000)"
       fill="#000000" stroke="none">
        <path d="M518 2087 l-518 -292 0 -596 0 -597 519 -296 c286 -163 524 -296 530
-296 7 0 246 134 532 298 l521 297 -7 578 c-7 619 -7 603 -20 614 -4 4 -5 2
-1 -4 12 -21 -2 -15 -57 25 -29 21 -117 77 -197 124 -442 259 -757 438 -772
438 -7 0 -246 -132 -530 -293z m533 -319 l239 -142 0 -118 c0 -71 -4 -118 -10
-118 -5 0 -107 59 -227 131 -119 73 -224 134 -233 136 -17 4 -289 -145 -290
-159 0 -3 171 -111 380 -239 l380 -233 0 -118 c0 -65 -3 -118 -6 -118 -3 0
-223 134 -490 298 l-484 297 2 120 3 119 245 142 c135 78 246 143 248 143 2 1
111 -63 243 -141z m492 -3 l246 -140 1 -157 0 -158 -110 0 -110 0 0 93 0 93
-245 139 c-134 77 -244 143 -242 147 3 12 191 126 203 125 6 -1 121 -65 257
-142z m-236 -452 l484 -298 -3 -119 -3 -119 -249 -142 -250 -141 -238 140
-238 141 0 119 c0 105 2 117 16 112 9 -4 116 -66 238 -139 l221 -133 142 80
c78 45 142 84 143 88 0 3 -171 111 -380 239 l-380 233 0 118 c0 65 3 118 7
118 3 0 224 -134 490 -297z m-775 -320 l3 -97 237 -136 c130 -74 239 -138 243
-141 3 -4 -41 -34 -98 -68 l-104 -61 -249 142 -249 143 -3 158 -3 157 110 0
110 0 3 -97z"/>
    </g>
</svg>
